<svg id="Layer_1" data-name="Layer 1" xmlns="http://www.w3.org/2000/svg" viewBox="0 0 512 512"><defs><style>.cls-1{fill:#f4607f;}.cls-2{opacity:0.1;}.cls-3{fill:#231f20;}</style></defs><title>female-symbol-flat</title><path class="cls-1" d="M512,384.19l-27.16-27.1-50.29,50.36L362,334.92a203.7,203.7,0,0,0,47-130.43C409,91.57,317.41,0,204.49,0S0,91.57,0,204.49,91.57,409,204.49,409a203.7,203.7,0,0,0,130.43-47l72.53,72.53L357.1,484.9l27.1,27.1,50.36-50.36L484.9,512,512,484.9l-50.36-50.36Zm-307.51-57a122.7,122.7,0,1,1,122.7-122.7A122.73,122.73,0,0,1,204.49,327.19Z"/><g class="cls-2"><path class="cls-3" d="M461.64,434.55,512,484.9,484.9,512l-50.36-50.36L384.19,512l-27.1-27.1,50.36-50.36L334.92,362a203.7,203.7,0,0,1-130.43,47v-81.8a122.7,122.7,0,1,0,0-245.39V0C317.41,0,409,91.57,409,204.49a203.7,203.7,0,0,1-47,130.43l72.53,72.53,50.29-50.36L512,384.19Z"/></g></svg>