<svg id="Layer_1" data-name="Layer 1" xmlns="http://www.w3.org/2000/svg" viewBox="0 0 512 512"><defs><style>.cls-1{fill:#199cf4;}.cls-2{opacity:0.1;}.cls-3{fill:#231f20;}</style></defs><title>male-symbol-flat</title><path class="cls-1" d="M307.2,102.4a204,204,0,0,0-130.6,47.05L65.55,38.4h56V0H0V121.6H38.4V65.55L149.45,176.6A204,204,0,0,0,102.4,307.2c0,113.09,91.71,204.8,204.8,204.8S512,420.29,512,307.2,420.29,102.4,307.2,102.4Zm0,327.68A122.88,122.88,0,1,1,430.08,307.2,122.91,122.91,0,0,1,307.2,430.08Z"/><g class="cls-2"><path class="cls-3" d="M512,307.2C512,420.29,420.29,512,307.2,512V430.08a122.88,122.88,0,0,0,0-245.76V102.4C420.29,102.4,512,194.11,512,307.2Z"/></g></svg>